<?xml version="1.0" standalone="no"?>
<!DOCTYPE svg PUBLIC "-//W3C//DTD SVG 20010904//EN"
 "http://www.w3.org/TR/2001/REC-SVG-20010904/DTD/svg10.dtd">
<svg version="1.0" xmlns="http://www.w3.org/2000/svg"
 width="320.000000pt" height="320.000000pt" viewBox="0 0 320.000000 320.000000"
 preserveAspectRatio="xMidYMid meet">
<metadata>
Created by potrace 1.14, written by Peter Selinger 2001-2017
</metadata>
<g transform="translate(0.000000,320.000000) scale(0.100000,-0.100000)"
fill="#000000" stroke="none">
<path d="M0 1600 l0 -1600 1600 0 1600 0 0 1600 0 1600 -1600 0 -1600 0 0
-1600z m1620 584 c0 -3 -12 -22 -26 -42 -21 -29 -24 -32 -19 -12 4 14 12 27
16 28 5 2 9 10 9 18 0 8 5 14 10 14 6 0 10 -2 10 -6z m-429 -511 c-9 -15 -10
-12 -11 18 0 20 3 39 8 43 11 12 14 -42 3 -61z m818 24 c-1 -31 -1 -31 -9 -7
-11 36 -11 52 0 45 6 -3 10 -21 9 -38z m-719 -54 c0 -10 -6 -13 -16 -9 -9 3
-27 9 -40 12 -25 6 -31 33 -17 70 5 14 11 11 40 -21 18 -20 33 -44 33 -52z
m689 31 c1 -15 -7 -24 -23 -28 -13 -3 -31 -9 -40 -12 -25 -10 -19 15 16 58 28
36 33 38 39 22 4 -11 8 -29 8 -40z m-935 -208 c9 -22 28 -55 42 -74 14 -18 24
-35 21 -38 -7 -7 -52 57 -75 107 -12 26 -24 66 -27 90 l-5 44 14 -45 c7 -25
21 -63 30 -84z m42 103 c27 -12 67 -30 89 -39 49 -22 143 -47 213 -56 l52 -7
0 -42 c0 -35 4 -44 26 -55 34 -19 208 -20 251 -2 28 12 32 20 35 55 l3 41 98
18 c58 11 135 35 190 59 50 22 98 43 105 46 25 11 10 -62 -27 -132 -35 -65
-39 -70 -68 -67 -19 2 -56 -10 -99 -31 -38 -19 -85 -40 -104 -47 -19 -7 -49
-19 -67 -26 -17 -8 -38 -14 -47 -14 -12 0 -16 -10 -16 -40 0 -35 -3 -41 -27
-47 -47 -13 -189 -9 -207 6 -9 8 -16 28 -16 47 0 26 -4 34 -17 34 -10 1 -36 9
-58 20 -22 11 -44 19 -48 20 -10 0 -58 21 -133 57 -32 15 -60 23 -72 19 -25
-8 -45 11 -76 73 -22 42 -44 131 -33 131 2 0 26 -10 53 -21z m1090 -59 c-14
-55 -73 -157 -84 -146 -2 3 5 17 16 33 25 35 62 117 62 137 0 20 11 48 17 42
3 -2 -3 -32 -11 -66z m-570 -7 c-10 -26 -29 1 -21 28 7 20 8 21 17 5 5 -9 7
-24 4 -33z m-3 -30 c-7 -2 -19 -2 -25 0 -7 3 -2 5 12 5 14 0 19 -2 13 -5z
m-347 -155 c-12 -8 -109 40 -102 51 3 4 29 -4 59 -18 29 -14 49 -29 43 -33z
m784 47 c0 -9 -98 -54 -104 -47 -4 3 12 16 36 29 41 21 68 28 68 18z m-707
-70 c18 -8 50 -21 72 -29 56 -21 11 -20 -51 0 -50 17 -91 44 -65 44 7 0 27 -7
44 -15z m577 8 c-8 -3 -17 -9 -20 -13 -3 -4 -27 -14 -54 -23 -62 -21 -108 -22
-51 -1 22 8 54 21 70 29 17 8 39 14 50 14 14 0 16 -2 5 -6z m-450 -100 c0 -7
-4 -13 -10 -13 -5 0 -10 12 -10 28 0 21 2 24 10 12 5 -8 10 -21 10 -27z m286
-11 c-12 -11 -18 7 -10 30 l8 23 4 -23 c2 -13 1 -26 -2 -30z m-172 -43 c11
-10 -74 1 -94 12 -9 5 6 6 35 2 28 -3 54 -9 59 -14z m141 12 c-11 -5 -42 -11
-70 -14 l-50 -6 50 14 c28 7 59 13 70 13 l20 1 -20 -8z"/>
</g>
</svg>
